<?xml version="1.0" encoding="UTF-8"?><svg id="Layer_1" xmlns="http://www.w3.org/2000/svg" viewBox="0 0 100 100"><defs><style>.cls-1{fill:#feadb6;}.cls-1,.cls-2,.cls-3,.cls-4,.cls-5,.cls-6,.cls-7,.cls-8{stroke:#fff;stroke-linejoin:bevel;}.cls-2{fill:#ffd8db;}.cls-9{isolation:isolate;}.cls-10{fill:#f43f5e;opacity:.7;}.cls-11{fill:#0f172a;}.cls-3{fill:#fff1f2;}.cls-4{fill:#ffcfd4;}.cls-5{fill:#fda4af;}.cls-6{fill:#ffe0e3;}.cls-7{fill:#ffbec5;}.cls-8{fill:#feb5be;}</style></defs><g><path class="cls-4" d="m51.38,77.68l-4.71-51.25L-7.03,83.71l58.41-6.03Z"/><path class="cls-6" d="m46.67,26.42L-7.03,20.77v62.94L46.67,26.42Z"/><path class="cls-3" d="m-7.03,83.71l60.3,53.89-1.88-59.92-58.41,6.03Z"/><path class="cls-3" d="m-7.03,137.6h60.3L-7.03,83.71v53.89Z"/><path class="cls-8" d="m46.67,26.42L-7.03-31.99V20.77l53.7,5.65Z"/><path class="cls-2" d="m53.27,137.6l52.76-52.38-54.65-7.54,1.88,59.92Z"/><path class="cls-1" d="m51.38,77.68l54.65-58.04-59.36,6.78,4.71,51.25Z"/><path class="cls-1" d="m46.67,26.42l8.86-58.41H-7.03L46.67,26.42Z"/><path class="cls-4" d="m106.03,85.21V19.64l-54.65,58.04,54.65,7.54Z"/><path class="cls-7" d="m106.03,19.64L55.53-31.99l-8.86,58.41,59.36-6.78Z"/><path class="cls-1" d="m53.27,137.6h52.76v-52.38l-52.76,52.38Z"/><path class="cls-5" d="m106.03,19.64V-31.99h-50.5l50.5,51.63Z"/></g><rect class="cls-10" width="100" height="100"/><g class="cls-9"><path class="cls-11" d="m8.86,55.04c0-14.35,6.3-19.67,13.16-19.67,4.76,0,9.38,2.45,10.57,13.3h.98c-1.19-7.42-1.19-12.95-1.19-14.21v-9.1h16.8v32.34l1.4,15.96h-15.89l-1.05-13.02h-.7c-.21,10.85-5.46,13.86-11.41,13.86-7.56,0-12.67-6.02-12.67-19.46Zm23.59-.14c0-2.17-1.47-3.36-3.78-3.36-1.75,0-3.5.77-3.43,3.36,0,2.59,1.68,3.36,3.5,3.36,2.31,0,3.71-1.19,3.71-3.36Z"/><path class="cls-11" d="m52.74,65.4l8.54-6.37h.49c1.75,2.38,3.85,3.01,9.1,3.01,2.17,0,4.06-.35,4.06-1.47s-2.94-1.33-5.67-1.47c-7.35-.42-14.35-2.17-14.35-11.2,0-7.42,5.74-12.46,17.71-12.46,9.38,0,16.59,2.59,17.22,9.45l-8.54,5.67h-.77c-.7-2.1-4.55-2.38-6.86-2.38-2.59,0-3.29.91-3.29,1.47,0,1.82,4.76,1.54,7.07,1.61,7.7.28,13.09,2.1,13.09,10.29s-8.47,12.95-17.92,12.95-16.52-1.19-19.88-9.1Z"/></g></svg>