<svg viewBox="0 0 600 900" width="600" height="900" opacity="0.5" xmlns="http://www.w3.org/2000/svg" xmlns:xlink="http://www.w3.org/1999/xlink" version="1.1"><g stroke-width="1" stroke-linejoin="bevel"><path d="M344 563L600 534L600 338Z" fill="#f5eef5" stroke="#fecdd3"></path><path d="M600 338L318 253L344 563Z" fill="#f6ecf4" stroke="#fecdd3"></path><path d="M600 338L600 0L318 253Z" fill="#f4f0f6" stroke="#fecdd3"></path><path d="M600 0L288 0L318 253Z" fill="#ffe4e6" stroke="#fecdd3"></path><path d="M0 262L0 591L344 563Z" fill="#f5eef5" stroke="#fecdd3"></path><path d="M0 262L344 563L318 253Z" fill="#ffe4e6" stroke="#fecdd3"></path><path d="M344 563L600 900L600 534Z" fill="#f4f0f6" stroke="#fecdd3"></path><path d="M257 900L600 900L344 563Z" fill="#f4f4f5" stroke="#fecdd3"></path><path d="M288 0L0 262L318 253Z" fill="#f4f4f5" stroke="#fecdd3"></path><path d="M0 591L257 900L344 563Z" fill="#ffe4e6" stroke="#fecdd3"></path><path d="M288 0L0 0L0 262Z" fill="#f5eef5" stroke="#fecdd3"></path><path d="M0 591L0 900L257 900Z" fill="#f6ecf4" stroke="#fecdd3"></path></g></svg>