<svg id="visual" viewBox="0 0 600 900" width="600" height="900" xmlns="http://www.w3.org/2000/svg" xmlns:xlink="http://www.w3.org/1999/xlink" version="1.1"><g stroke-width="1" stroke-linejoin="bevel"><path d="M400 485L428 338L272 346Z" fill="#1c2739" stroke="#1c2739"></path><path d="M428 338L286 217L272 346Z" fill="#10192c" stroke="#10192c"></path><path d="M400 485L600 445L428 338Z" fill="#182234" stroke="#182234"></path><path d="M428 338L473 94L286 217Z" fill="#0f172a" stroke="#0f172a"></path><path d="M400 485L600 509L600 445Z" fill="#10192c" stroke="#10192c"></path><path d="M0 273L108 577L272 346Z" fill="#131c2f" stroke="#131c2f"></path><path d="M272 346L108 577L400 485Z" fill="#182234" stroke="#182234"></path><path d="M400 485L486 729L600 509Z" fill="#1e293b" stroke="#1e293b"></path><path d="M600 165L473 94L428 338Z" fill="#131c2f" stroke="#131c2f"></path><path d="M600 445L600 165L428 338Z" fill="#10192c" stroke="#10192c"></path><path d="M270 748L486 729L400 485Z" fill="#121b2d" stroke="#121b2d"></path><path d="M108 577L270 748L400 485Z" fill="#1b2537" stroke="#1b2537"></path><path d="M0 155L0 273L286 217Z" fill="#0f172a" stroke="#0f172a"></path><path d="M286 217L0 273L272 346Z" fill="#1c2739" stroke="#1c2739"></path><path d="M0 273L0 548L108 577Z" fill="#1b2537" stroke="#1b2537"></path><path d="M108 577L0 633L270 748Z" fill="#10192c" stroke="#10192c"></path><path d="M600 0L321 0L473 94Z" fill="#121b2d" stroke="#121b2d"></path><path d="M473 94L321 0L286 217Z" fill="#10192c" stroke="#10192c"></path><path d="M321 0L226 0L286 217Z" fill="#182234" stroke="#182234"></path><path d="M0 548L0 633L108 577Z" fill="#1b2537" stroke="#1b2537"></path><path d="M226 0L0 155L286 217Z" fill="#1c2739" stroke="#1c2739"></path><path d="M600 900L600 791L486 729Z" fill="#182234" stroke="#182234"></path><path d="M486 729L600 791L600 509Z" fill="#1c2739" stroke="#1c2739"></path><path d="M600 165L600 0L473 94Z" fill="#182234" stroke="#182234"></path><path d="M231 900L315 900L270 748Z" fill="#0f172a" stroke="#0f172a"></path><path d="M270 748L315 900L486 729Z" fill="#151e30" stroke="#151e30"></path><path d="M0 900L231 900L270 748Z" fill="#1e293b" stroke="#1e293b"></path><path d="M226 0L0 0L0 155Z" fill="#0f172a" stroke="#0f172a"></path><path d="M315 900L600 900L486 729Z" fill="#121b2d" stroke="#121b2d"></path><path d="M0 633L0 900L270 748Z" fill="#0f172a" stroke="#0f172a"></path></g></svg>