<svg id="visual" viewBox="0 0 600 900" width="600" height="900" xmlns="http://www.w3.org/2000/svg" xmlns:xlink="http://www.w3.org/1999/xlink" version="1.1"><g stroke-width="1" stroke-linejoin="bevel"><path d="M310 582L285 310L0 614Z" fill="#ffcfd4" stroke="#FFFFFF"></path><path d="M285 310L0 280L0 614Z" fill="#ffe0e3" stroke="#FFFFFF"></path><path d="M0 614L320 900L310 582Z" fill="#fff1f2" stroke="#FFFFFF"></path><path d="M0 900L320 900L0 614Z" fill="#fff1f2" stroke="#FFFFFF"></path><path d="M285 310L0 0L0 280Z" fill="#feb5be" stroke="#FFFFFF"></path><path d="M320 900L600 622L310 582Z" fill="#ffd8db" stroke="#FFFFFF"></path><path d="M310 582L600 274L285 310Z" fill="#feadb6" stroke="#FFFFFF"></path><path d="M285 310L332 0L0 0Z" fill="#feadb6" stroke="#FFFFFF"></path><path d="M600 622L600 274L310 582Z" fill="#ffcfd4" stroke="#FFFFFF"></path><path d="M600 274L332 0L285 310Z" fill="#ffbec5" stroke="#FFFFFF"></path><path d="M320 900L600 900L600 622Z" fill="#feadb6" stroke="#FFFFFF"></path><path d="M600 274L600 0L332 0Z" fill="#fda4af" stroke="#FFFFFF"></path></g></svg>