<svg id="visual" viewBox="0 0 600 900" width="600" height="900" xmlns="http://www.w3.org/2000/svg" xmlns:xlink="http://www.w3.org/1999/xlink" version="1.1"><g stroke-width="1" stroke-linejoin="bevel"><path d="M332 447L404 212L280 333Z" fill="#1c2739" stroke="#1c2739"></path><path d="M332 447L600 396L404 212Z" fill="#151e30" stroke="#151e30"></path><path d="M332 447L600 496L600 396Z" fill="#0f172a" stroke="#0f172a"></path><path d="M332 447L449 607L600 496Z" fill="#1c2739" stroke="#1c2739"></path><path d="M600 396L600 93L404 212Z" fill="#121b2d" stroke="#121b2d"></path><path d="M404 212L133 144L280 333Z" fill="#121b2d" stroke="#121b2d"></path><path d="M280 333L161 580L332 447Z" fill="#0f172a" stroke="#0f172a"></path><path d="M131 0L133 144L404 212Z" fill="#121b2d" stroke="#121b2d"></path><path d="M0 340L161 580L280 333Z" fill="#121b2d" stroke="#121b2d"></path><path d="M332 447L161 580L449 607Z" fill="#1c2739" stroke="#1c2739"></path><path d="M600 93L473 0L404 212Z" fill="#1b2537" stroke="#1b2537"></path><path d="M470 753L600 670L449 607Z" fill="#1e293b" stroke="#1e293b"></path><path d="M449 607L600 670L600 496Z" fill="#10192c" stroke="#10192c"></path><path d="M600 93L600 0L473 0Z" fill="#151e30" stroke="#151e30"></path><path d="M133 144L0 340L280 333Z" fill="#10192c" stroke="#10192c"></path><path d="M140 786L470 753L449 607Z" fill="#10192c" stroke="#10192c"></path><path d="M0 0L0 179L133 144Z" fill="#1c2739" stroke="#1c2739"></path><path d="M133 144L0 179L0 340Z" fill="#121b2d" stroke="#121b2d"></path><path d="M473 0L131 0L404 212Z" fill="#10192c" stroke="#10192c"></path><path d="M0 340L0 523L161 580Z" fill="#1c2739" stroke="#1c2739"></path><path d="M161 580L140 786L449 607Z" fill="#121b2d" stroke="#121b2d"></path><path d="M0 523L0 630L161 580Z" fill="#182234" stroke="#182234"></path><path d="M0 630L140 786L161 580Z" fill="#1b2537" stroke="#1b2537"></path><path d="M131 0L0 0L133 144Z" fill="#1b2537" stroke="#1b2537"></path><path d="M140 786L320 900L470 753Z" fill="#1c2739" stroke="#1c2739"></path><path d="M470 753L600 900L600 670Z" fill="#131c2f" stroke="#131c2f"></path><path d="M320 900L600 900L470 753Z" fill="#121b2d" stroke="#121b2d"></path><path d="M0 900L155 900L140 786Z" fill="#10192c" stroke="#10192c"></path><path d="M140 786L155 900L320 900Z" fill="#121b2d" stroke="#121b2d"></path><path d="M0 630L0 900L140 786Z" fill="#1c2739" stroke="#1c2739"></path></g></svg>