<svg id="visual" viewBox="0 0 600 900" width="600" height="900" xmlns="http://www.w3.org/2000/svg" xmlns:xlink="http://www.w3.org/1999/xlink" version="1.1"><g stroke-width="1" stroke-linejoin="bevel"><path d="M445 359L600 407L485 242Z" fill="#162032" stroke="#162032"></path><path d="M600 407L600 185L485 242Z" fill="#162032" stroke="#162032"></path><path d="M445 359L600 611L600 407Z" fill="#1b2537" stroke="#1b2537"></path><path d="M600 185L381 0L485 242Z" fill="#1e293b" stroke="#1e293b"></path><path d="M600 0L381 0L600 185Z" fill="#162032" stroke="#162032"></path><path d="M485 242L157 216L445 359Z" fill="#182234" stroke="#182234"></path><path d="M146 541L327 621L445 359Z" fill="#192436" stroke="#192436"></path><path d="M445 359L327 621L600 611Z" fill="#1e293b" stroke="#1e293b"></path><path d="M381 0L157 216L485 242Z" fill="#151e30" stroke="#151e30"></path><path d="M157 216L133 368L445 359Z" fill="#10192c" stroke="#10192c"></path><path d="M327 621L482 770L600 611Z" fill="#121b2d" stroke="#121b2d"></path><path d="M133 368L146 541L445 359Z" fill="#0f172a" stroke="#0f172a"></path><path d="M327 621L207 688L482 770Z" fill="#1b2537" stroke="#1b2537"></path><path d="M381 0L224 0L157 216Z" fill="#1e293b" stroke="#1e293b"></path><path d="M482 770L600 786L600 611Z" fill="#162032" stroke="#162032"></path><path d="M146 541L207 688L327 621Z" fill="#1b2537" stroke="#1b2537"></path><path d="M0 92L0 319L157 216Z" fill="#1e293b" stroke="#1e293b"></path><path d="M157 216L0 319L133 368Z" fill="#1c2739" stroke="#1c2739"></path><path d="M133 368L0 539L146 541Z" fill="#10192c" stroke="#10192c"></path><path d="M146 541L0 643L207 688Z" fill="#1c2739" stroke="#1c2739"></path><path d="M451 900L600 900L482 770Z" fill="#121b2d" stroke="#121b2d"></path><path d="M482 770L600 900L600 786Z" fill="#10192c" stroke="#10192c"></path><path d="M0 319L0 539L133 368Z" fill="#162032" stroke="#162032"></path><path d="M248 900L451 900L482 770Z" fill="#151e30" stroke="#151e30"></path><path d="M248 900L482 770L207 688Z" fill="#192436" stroke="#192436"></path><path d="M224 0L0 92L157 216Z" fill="#0f172a" stroke="#0f172a"></path><path d="M0 539L0 643L146 541Z" fill="#1c2739" stroke="#1c2739"></path><path d="M224 0L0 0L0 92Z" fill="#121b2d" stroke="#121b2d"></path><path d="M0 900L248 900L207 688Z" fill="#192436" stroke="#192436"></path><path d="M0 643L0 900L207 688Z" fill="#162032" stroke="#162032"></path></g></svg>