<svg id="visual" viewBox="0 0 450 900" width="450" height="900" xmlns="http://www.w3.org/2000/svg" xmlns:xlink="http://www.w3.org/1999/xlink" version="1.1"><g stroke-width="1" stroke-linejoin="bevel"><path d="M227 438L286.5 469L304.5 404.5Z" fill="#f85a72" stroke="#f85a72"></path><path d="M224 612.5L318.5 531.5L286.5 469Z" fill="#fa687d" stroke="#fa687d"></path><path d="M286.5 469L450 465L304.5 404.5Z" fill="#f64b66" stroke="#f64b66"></path><path d="M304.5 404.5L285 290.5L227 438Z" fill="#f95f76" stroke="#f95f76"></path><path d="M77.5 358.5L100.5 439L227 438Z" fill="#fa6d81" stroke="#fa6d81"></path><path d="M227 438L164.5 585.5L286.5 469Z" fill="#f43f5e" stroke="#f43f5e"></path><path d="M318.5 531.5L450 465L286.5 469Z" fill="#f7556e" stroke="#f7556e"></path><path d="M304.5 404.5L450 371.5L285 290.5Z" fill="#f9647a" stroke="#f9647a"></path><path d="M100.5 439L164.5 585.5L227 438Z" fill="#f43f5e" stroke="#f43f5e"></path><path d="M164.5 585.5L224 612.5L286.5 469Z" fill="#fa687d" stroke="#fa687d"></path><path d="M318.5 531.5L450 614.5L450 465Z" fill="#f43f5e" stroke="#f43f5e"></path><path d="M450 465L450 371.5L304.5 404.5Z" fill="#f43f5e" stroke="#f43f5e"></path><path d="M285 290.5L77.5 358.5L227 438Z" fill="#f64b66" stroke="#f64b66"></path><path d="M259 705L271.5 638L224 612.5Z" fill="#f9647a" stroke="#f9647a"></path><path d="M224 612.5L271.5 638L318.5 531.5Z" fill="#f9647a" stroke="#f9647a"></path><path d="M450 371.5L450 281L285 290.5Z" fill="#f95f76" stroke="#f95f76"></path><path d="M389.5 202L289 186L285 290.5Z" fill="#f64b66" stroke="#f64b66"></path><path d="M285 290.5L151.5 180L77.5 358.5Z" fill="#f64b66" stroke="#f64b66"></path><path d="M450 281L389.5 202L285 290.5Z" fill="#fa687d" stroke="#fa687d"></path><path d="M271.5 638L450 614.5L318.5 531.5Z" fill="#f7506a" stroke="#f7506a"></path><path d="M63.5 649L259 705L224 612.5Z" fill="#f85a72" stroke="#f85a72"></path><path d="M271.5 638L338.5 769.5L450 614.5Z" fill="#f54562" stroke="#f54562"></path><path d="M289 186L151.5 180L285 290.5Z" fill="#f7506a" stroke="#f7506a"></path><path d="M77.5 358.5L0 507L100.5 439Z" fill="#f85a72" stroke="#f85a72"></path><path d="M100.5 439L0 507L164.5 585.5Z" fill="#fa6d81" stroke="#fa6d81"></path><path d="M124.5 832.5L266 727.5L259 705Z" fill="#f95f76" stroke="#f95f76"></path><path d="M0 316.5L0 507L77.5 358.5Z" fill="#f85a72" stroke="#f85a72"></path><path d="M0 277L0 316.5L77.5 358.5Z" fill="#f9647a" stroke="#f9647a"></path><path d="M63.5 649L224 612.5L164.5 585.5Z" fill="#f9647a" stroke="#f9647a"></path><path d="M259 705L338.5 769.5L271.5 638Z" fill="#fa6d81" stroke="#fa6d81"></path><path d="M0 570.5L63.5 649L164.5 585.5Z" fill="#f95f76" stroke="#f95f76"></path><path d="M0 507L0 570.5L164.5 585.5Z" fill="#f54562" stroke="#f54562"></path><path d="M289 186L273.5 121.5L151.5 180Z" fill="#f7556e" stroke="#f7556e"></path><path d="M290 119.5L273.5 121.5L289 186Z" fill="#f43f5e" stroke="#f43f5e"></path><path d="M151.5 180L0 277L77.5 358.5Z" fill="#f43f5e" stroke="#f43f5e"></path><path d="M389.5 202L290 119.5L289 186Z" fill="#f7556e" stroke="#f7556e"></path><path d="M450 281L450 173.5L389.5 202Z" fill="#f7506a" stroke="#f7506a"></path><path d="M389.5 202L450 173.5L290 119.5Z" fill="#fa6d81" stroke="#fa6d81"></path><path d="M151.5 180L53.5 172.5L0 277Z" fill="#f64b66" stroke="#f64b66"></path><path d="M0 100.5L53.5 172.5L181.5 0Z" fill="#f43f5e" stroke="#f43f5e"></path><path d="M266 727.5L338.5 769.5L259 705Z" fill="#fb7185" stroke="#fb7185"></path><path d="M245 900L338.5 769.5L266 727.5Z" fill="#fa6d81" stroke="#fa6d81"></path><path d="M338.5 769.5L450 743L450 614.5Z" fill="#f7506a" stroke="#f7506a"></path><path d="M0 570.5L0 719L63.5 649Z" fill="#fa687d" stroke="#fa687d"></path><path d="M63.5 649L124.5 832.5L259 705Z" fill="#f7506a" stroke="#f7506a"></path><path d="M181.5 0L53.5 172.5L151.5 180Z" fill="#fa687d" stroke="#fa687d"></path><path d="M53.5 172.5L0 100.5L0 277Z" fill="#f9647a" stroke="#f9647a"></path><path d="M181.5 0L151.5 180L273.5 121.5Z" fill="#f9647a" stroke="#f9647a"></path><path d="M0 719L124.5 832.5L63.5 649Z" fill="#f95f76" stroke="#f95f76"></path><path d="M338.5 769.5L450 833.5L450 743Z" fill="#f9647a" stroke="#f9647a"></path><path d="M360.5 0L274 0L290 119.5Z" fill="#fa6d81" stroke="#fa6d81"></path><path d="M290 119.5L274 0L273.5 121.5Z" fill="#f43f5e" stroke="#f43f5e"></path><path d="M274 0L181.5 0L273.5 121.5Z" fill="#f95f76" stroke="#f95f76"></path><path d="M450 173.5L360.5 0L290 119.5Z" fill="#f7506a" stroke="#f7506a"></path><path d="M403.5 900L450 833.5L338.5 769.5Z" fill="#fb7185" stroke="#fb7185"></path><path d="M450 173.5L450 0L360.5 0Z" fill="#f9647a" stroke="#f9647a"></path><path d="M124.5 832.5L245 900L266 727.5Z" fill="#f43f5e" stroke="#f43f5e"></path><path d="M0 719L0 828.5L124.5 832.5Z" fill="#f85a72" stroke="#f85a72"></path><path d="M124.5 832.5L119.5 900L245 900Z" fill="#fb7185" stroke="#fb7185"></path><path d="M245 900L403.5 900L338.5 769.5Z" fill="#f54562" stroke="#f54562"></path><path d="M0 828.5L119.5 900L124.5 832.5Z" fill="#f54562" stroke="#f54562"></path><path d="M403.5 900L450 900L450 833.5Z" fill="#fb7185" stroke="#fb7185"></path><path d="M181.5 0L0 0L0 100.5Z" fill="#f54562" stroke="#f54562"></path><path d="M0 828.5L0 900L119.5 900Z" fill="#f9647a" stroke="#f9647a"></path></g></svg>